<svg xmlns="http://www.w3.org/2000/svg" viewBox="0 0 926 926" role="img" aria-label="IZITech">
  <rect width="926" height="926" rx="208" fill="#cc0000"/>
  <path d="M463,0C207.29,0,0,207.29,0,463S207.29,926,463,926,926,718.71,926,463,718.71,0,463,0ZM691.45,720.28a71.47,71.47,0,0,1-15.51,22.49,72.9,72.9,0,0,1-22.69,15.13,69.88,69.88,0,0,1-27.53,5.42,75.24,75.24,0,0,1-28.5-5.42,73.9,73.9,0,0,1-20.46-12.41h-272l-63.84.14L240,343.51l120.21-.27.38,165L519.49,281.32H353.22c-.29.29-.57.58-.87.86a77.53,77.53,0,0,1-23.43,15.18,72.7,72.7,0,0,1-28.48,5.69,67.7,67.7,0,0,1-27.55-5.56,77.43,77.43,0,0,1-22.72-15.07,69.83,69.83,0,0,1-15.56-22.07,65.3,65.3,0,0,1-5.68-26.94,67.69,67.69,0,0,1,5.56-27.54A71.29,71.29,0,0,1,250,183.34l.42-.4.19-.17c.77-.75,1.56-1.48,2.36-2.18l.09-.09h0a72.9,72.9,0,0,1,19.58-12.33,69.66,69.66,0,0,1,27.52-5.49A74.91,74.91,0,0,1,328.63,168a73.86,73.86,0,0,1,20.61,12.46h337v50.41c0,.19,0,.39,0,.58V582.62H566V419.78L408.58,644.67h164.2c.33-.33.65-.66,1-1a77.85,77.85,0,0,1,23.46-15.13,72.78,72.78,0,0,1,28.5-5.62,67.61,67.61,0,0,1,27.53,5.62,77.33,77.33,0,0,1,22.69,15.13,69.81,69.81,0,0,1,15.51,22.1,65.34,65.34,0,0,1,5.62,27A67.65,67.65,0,0,1,691.45,720.28Z" fill="#ffffff"/>
</svg>
